<svg width="20" height="20" viewBox="0 0 20 20" fill="none" xmlns="http://www.w3.org/2000/svg">
<path d="M16.6667 3.33337H3.33335C2.41669 3.33337 1.67502 4.08337 1.67502 5.00004L1.66669 15C1.66669 15.9167 2.41669 16.6667 3.33335 16.6667H16.6667C17.5834 16.6667 18.3334 15.9167 18.3334 15V5.00004C18.3334 4.08337 17.5834 3.33337 16.6667 3.33337ZM16.3334 6.87504L10.4417 10.5584C10.175 10.725 9.82502 10.725 9.55835 10.5584L3.66669 6.87504C3.58313 6.82813 3.50995 6.76476 3.45159 6.68875C3.39324 6.61275 3.35091 6.52569 3.32717 6.43285C3.30343 6.34001 3.29877 6.24332 3.31348 6.14863C3.3282 6.05394 3.36197 5.96322 3.41276 5.88196C3.46354 5.8007 3.53029 5.73059 3.60896 5.67587C3.68763 5.62115 3.77658 5.58297 3.87043 5.56362C3.96429 5.54428 4.06109 5.54418 4.15498 5.56333C4.24888 5.58248 4.33791 5.62048 4.41669 5.67504L10 9.16671L15.5834 5.67504C15.6621 5.62048 15.7512 5.58248 15.8451 5.56333C15.939 5.54418 16.0358 5.54428 16.1296 5.56362C16.2235 5.58297 16.3124 5.62115 16.3911 5.67587C16.4698 5.73059 16.5365 5.8007 16.5873 5.88196C16.6381 5.96322 16.6718 6.05394 16.6866 6.14863C16.7013 6.24332 16.6966 6.34001 16.6729 6.43285C16.6491 6.52569 16.6068 6.61275 16.5484 6.68875C16.4901 6.76476 16.4169 6.82813 16.3334 6.87504Z" fill="#BDBDBD"/>
</svg>
