<svg width="23" height="23" viewBox="0 0 23 23" fill="none" xmlns="http://www.w3.org/2000/svg">
<path d="M19.1666 10.5407H21.0833C21.0833 5.62442 17.3717 1.91663 12.4487 1.91663V3.83329C16.3415 3.83329 19.1666 6.65367 19.1666 10.5407Z" fill="#BDBDBD"/>
<path d="M12.4584 7.66669C14.4737 7.66669 15.3334 8.52632 15.3334 10.5417H17.25C17.25 7.45107 15.549 5.75003 12.4584 5.75003V7.66669ZM15.7378 12.8829C15.5536 12.7155 15.3116 12.6263 15.0629 12.634C14.8142 12.6416 14.5782 12.7457 14.4047 12.9241L12.1114 15.2826C11.5594 15.1772 10.4497 14.8312 9.30736 13.6917C8.16503 12.5484 7.81907 11.4358 7.71653 10.8877L10.0731 8.5934C10.2517 8.42007 10.3559 8.18402 10.3636 7.93522C10.3713 7.68643 10.2819 7.4444 10.1143 7.26036L6.57323 3.36665C6.40557 3.18203 6.17254 3.07005 5.92363 3.05448C5.67473 3.03892 5.42956 3.12099 5.24019 3.28328L3.16061 5.06673C2.99492 5.23302 2.89603 5.45433 2.88269 5.68869C2.86832 5.92828 2.59423 11.6035 6.9949 16.0061C10.834 19.8442 15.6429 20.125 16.9673 20.125C17.1609 20.125 17.2797 20.1193 17.3114 20.1174C17.5457 20.1042 17.7669 20.0049 17.9324 19.8385L19.7149 17.7579C19.8773 17.5687 19.9595 17.3236 19.9441 17.0747C19.9287 16.8258 19.8169 16.5927 19.6324 16.4249L15.7378 12.8829Z" fill="#BDBDBD"/>
</svg>
