<svg width="21" height="21" viewBox="0 0 21 21" fill="none" xmlns="http://www.w3.org/2000/svg">
<path d="M12.1832 10.3246L9.82486 9.22423C9.61906 9.12868 9.45001 9.23578 9.45001 9.46363V11.5363C9.45001 11.7642 9.61906 11.8713 9.82486 11.7757L12.1821 10.6753C12.389 10.5787 12.389 10.4212 12.1832 10.3246ZM10.5 0.419983C4.93291 0.419983 0.420013 4.93288 0.420013 10.5C0.420013 16.0671 4.93291 20.58 10.5 20.58C16.0671 20.58 20.58 16.0671 20.58 10.5C20.58 4.93288 16.0671 0.419983 10.5 0.419983ZM10.5 14.595C5.34031 14.595 5.25001 14.1298 5.25001 10.5C5.25001 6.87013 5.34031 6.40498 10.5 6.40498C15.6597 6.40498 15.75 6.87013 15.75 10.5C15.75 14.1298 15.6597 14.595 10.5 14.595Z" fill="#BDBDBD"/>
</svg>
